<svg width="23" height="17" viewBox="0 0 23 17" fill="none" xmlns="http://www.w3.org/2000/svg">
<path d="M21.75 9C21.2265 8.30091 20.5472 7.73354 19.766 7.34296C18.9849 6.95237 18.1234 6.74934 17.25 6.75C17.811 6.74972 18.3608 6.59212 18.8367 6.2951C19.3127 5.99808 19.6958 5.57355 19.9426 5.06971C20.1894 4.56587 20.29 4.00293 20.2329 3.4448C20.1758 2.88668 19.9634 2.35574 19.6197 1.91229C19.2761 1.46883 18.8149 1.13064 18.2887 0.936109C17.7625 0.741579 17.1922 0.69851 16.6427 0.811793C16.0933 0.925076 15.5866 1.19017 15.1802 1.57697C14.7738 1.96377 14.484 2.45678 14.3438 3M0.75 9C1.2735 8.30091 1.95281 7.73354 2.73398 7.34296C3.51514 6.95237 4.37663 6.74934 5.25 6.75C4.68896 6.74972 4.13925 6.59212 3.66328 6.2951C3.18732 5.99808 2.80418 5.57355 2.55738 5.06971C2.31058 4.56587 2.21 4.00293 2.26708 3.4448C2.32415 2.88668 2.53659 2.35574 2.88027 1.91229C3.22394 1.46883 3.68508 1.13064 4.21131 0.936109C4.73755 0.741579 5.30778 0.69851 5.85726 0.811793C6.40674 0.925076 6.91345 1.19017 7.31983 1.57697C7.72622 1.96377 8.01599 2.45678 8.15625 3M11.25 12.75C13.3211 12.75 15 11.0711 15 9C15 6.92893 13.3211 5.25 11.25 5.25C9.17893 5.25 7.5 6.92893 7.5 9C7.5 11.0711 9.17893 12.75 11.25 12.75ZM11.25 12.75C10.1895 12.75 9.1474 13.0267 8.22665 13.5529C7.3059 14.079 6.5384 14.8364 6 15.75M11.25 12.75C12.3105 12.75 13.3526 13.0267 14.2733 13.5529C15.1941 14.079 15.9616 14.8364 16.5 15.75" stroke="#181D27" stroke-width="1.5" stroke-linecap="round" stroke-linejoin="round"/>
</svg>
