<svg width="48" height="17" viewBox="0 0 48 17" fill="none" xmlns="http://www.w3.org/2000/svg">
<path d="M46.7717 15.4164C46.5405 15.2031 46.4267 14.8149 46.4267 14.2485V8.7309C46.4267 8.05606 46.3749 7.5036 46.2749 7.07704C46.1714 6.65048 45.9989 6.29733 45.7539 6.02456C45.264 5.50009 44.5566 5.23785 43.632 5.23785C42.9109 5.23785 42.2519 5.42666 41.655 5.80429C41.0581 6.18192 40.5889 6.80778 40.2473 7.67496C40.1645 6.93017 39.954 6.38122 39.6159 6.0211C39.126 5.4966 38.4187 5.23435 37.494 5.23435C36.7867 5.23435 36.1345 5.43716 35.5377 5.84276C34.9408 6.24835 34.4784 6.88125 34.1507 7.73443V5.29729C33.5917 5.4896 32.8879 5.50359 32.0322 5.53156C31.7769 5.53856 31.6562 5.54555 31.4319 5.54555H29.3686V5.00708C29.3686 3.74132 29.3928 2.83571 29.4411 2.30074C29.4894 1.76227 29.586 1.35666 29.7378 1.08044C29.862 0.84617 30.038 0.660848 30.2691 0.520988C30.5003 0.384622 30.766 0.314691 31.0627 0.314691C31.3353 0.314691 31.5595 0.35665 31.7355 0.437071C31.9115 0.520988 32.0219 0.629381 32.0633 0.769242C31.8045 0.825191 31.5975 0.940575 31.4422 1.1189C31.2869 1.29722 31.2076 1.53149 31.2076 1.82171C31.2076 2.16787 31.318 2.43711 31.5354 2.63641C31.7528 2.83571 32.0184 2.93711 32.3289 2.93711C32.6394 2.93711 32.9017 2.83222 33.1052 2.62592C33.3088 2.41962 33.4123 2.15738 33.4123 1.83919C33.4123 1.3287 33.2019 0.902113 32.7809 0.55945C32.3048 0.188814 31.7148 0 31.0075 0C30.5037 0 30.0414 0.0944072 29.6205 0.279725C29.1996 0.465043 28.8511 0.716796 28.582 1.03498C28.1886 1.50352 27.9161 2.06996 27.7677 2.73082C27.6193 3.39166 27.5434 4.32875 27.5434 5.54205H25.9115V5.95466H27.5434V14.2415C27.5434 14.808 27.4295 15.1961 27.1984 15.4093C26.9776 15.6122 26.6015 15.7136 26.0805 15.724C25.5561 15.7136 25.18 15.6122 24.9626 15.4093C24.7315 15.1961 24.6176 14.808 24.6176 14.2415V8.72393C24.6176 8.04909 24.5658 7.49663 24.4658 7.07007C24.3623 6.64345 24.1898 6.2903 23.9448 6.01758C23.4549 5.4931 22.7476 5.23086 21.8229 5.23086C21.1018 5.23086 20.4428 5.41967 19.8459 5.7973C19.249 6.17494 18.7797 6.80081 18.4382 7.66799C18.3554 6.9232 18.1449 6.37425 17.8068 6.01407C17.3169 5.4896 16.6096 5.22736 15.6849 5.22736C14.9776 5.22736 14.3255 5.43016 13.7286 5.83577C13.1317 6.24138 12.6693 6.87422 12.3416 7.7274V5.2903C11.7827 5.48261 11.0753 5.58052 10.2197 5.58052C9.81252 5.58052 9.39161 5.55954 8.95688 5.51758V5.95115C9.5296 5.95115 9.92987 6.09451 10.161 6.38474C10.3922 6.67491 10.5061 7.1365 10.5061 7.76934V14.238C10.5061 14.8044 10.3887 15.1926 10.161 15.4059C10.1058 15.4583 10.0368 15.5038 9.96091 15.5422C9.92987 15.5562 9.64695 15.6716 9.2191 15.7136C9.13973 15.7205 9.06383 15.724 8.97411 15.7276C8.66361 15.731 8.30132 15.6891 7.91833 15.5457C7.87347 15.5143 7.83208 15.4793 7.79757 15.4408C7.76306 15.4024 7.73201 15.3639 7.71132 15.3254C7.61472 15.1751 7.56986 14.9268 7.56986 14.5806V8.83583C7.56986 8.10504 7.51124 7.5176 7.39735 7.07007C7.28353 6.62248 7.05235 6.24138 6.71422 5.9232C6.16908 5.41268 5.3686 5.15743 4.30938 5.15743C3.71248 5.15743 3.16044 5.23435 2.6567 5.38471C2.15296 5.53506 1.73893 5.73087 1.41116 5.96164C1.09718 6.18192 0.862563 6.4022 0.707304 6.62248C0.552041 6.84276 0.472686 7.11899 0.472686 7.44765C0.472686 7.77637 0.569293 8.08406 0.759055 8.32532C0.948821 8.56657 1.23519 8.68544 1.61472 8.68544C1.95285 8.68544 2.23232 8.58409 2.44969 8.38478C2.66705 8.18547 2.77746 7.9127 2.77746 7.57004C2.77746 7.22737 2.6843 6.96514 2.50144 6.74486C2.31858 6.52458 2.09086 6.38122 1.81829 6.31127C2.21162 5.81479 2.88442 5.56653 3.83669 5.56653C4.43359 5.56653 4.89937 5.71339 5.23404 6.01061C5.56527 6.30782 5.73433 6.85324 5.73433 7.65399V8.93372C5.73433 9.30433 5.55147 9.60154 5.18229 9.82182C4.81656 10.0422 4.25072 10.2834 3.48821 10.5456C2.73951 10.8079 2.13916 11.0562 1.68373 11.2904C1.22829 11.5247 0.834965 11.8428 0.500288 12.2414C0.165613 12.6401 0 13.1506 0 13.7695C0 14.5422 0.207016 15.1436 0.621047 15.5772C1.03508 16.0108 1.66992 16.2275 2.52904 16.2275C3.19494 16.2275 3.79529 16.0947 4.32318 15.8255C4.85451 15.5562 5.32375 15.0772 5.73088 14.3884C5.73088 14.9548 5.85853 15.4024 6.11734 15.731C6.37609 16.0632 6.83152 16.2275 7.48361 16.2275C7.52847 16.2275 7.56986 16.2206 7.61472 16.2206C7.61472 16.2206 7.62854 16.2206 7.6527 16.2206C7.78381 16.2101 7.91145 16.1926 8.02528 16.1646C8.02528 16.1646 8.02528 16.1611 8.02528 16.1576C8.47729 16.0877 9.20876 16.0003 9.71251 16.0527C10.6786 16.1017 11.0753 16.0772 11.4031 16.0772C11.7827 16.0772 12.5452 16.1051 13.6872 16.1611V15.7276C13.1834 15.7276 12.835 15.6226 12.6383 15.4059C12.4416 15.1926 12.3416 14.8044 12.3416 14.238V9.65051C12.3416 8.96167 12.4589 8.32883 12.697 7.74837C12.935 7.17148 13.2628 6.7134 13.6872 6.38474C14.1081 6.05256 14.5773 5.88823 15.0949 5.88823C15.5572 5.88823 15.8988 5.9931 16.1231 6.19943C16.3474 6.40571 16.4888 6.67145 16.5509 6.9966C16.613 7.32181 16.644 7.74491 16.644 8.26937V14.2415C16.644 14.808 16.544 15.1961 16.3474 15.4093C16.1507 15.6226 15.7987 15.731 15.2985 15.731V16.1646C16.4405 16.1087 17.203 16.0807 17.5825 16.0807C17.962 16.0807 18.7797 16.1087 20.0288 16.1646V15.731C19.456 15.731 19.0558 15.6262 18.8246 15.4093C18.5934 15.1961 18.4796 14.808 18.4796 14.2415V9.63306C18.4796 8.94421 18.5969 8.31483 18.835 7.7414C19.073 7.17148 19.4008 6.71692 19.8252 6.3882C20.2461 6.05608 20.7154 5.89169 21.2329 5.89169C21.6953 5.89169 22.0368 5.99661 22.2645 6.20289C22.4888 6.40923 22.6303 6.67491 22.6923 7.00012C22.7545 7.32533 22.7855 7.74837 22.7855 8.27288V14.245C22.7855 14.8115 22.6855 15.1995 22.4888 15.4128C22.2921 15.6262 21.9402 15.7345 21.4399 15.7345V16.1681C22.5819 16.1122 23.3444 16.0842 23.724 16.0842C24.0759 16.0842 24.8833 16.1891 26.0046 16.1611C27.2536 16.1122 28.0575 16.0842 28.4094 16.0842C28.789 16.0842 29.3997 16.1261 30.7867 16.1681L31.594 16.1332C32.3945 16.1017 32.9431 16.0842 33.2329 16.0842C33.6124 16.0842 34.3749 16.1122 35.517 16.1681V15.7345C35.0132 15.7345 34.6647 15.6296 34.4681 15.4128C34.2714 15.1995 34.1714 14.8115 34.1714 14.245V9.65749C34.1714 8.9687 34.2887 8.3358 34.5267 7.7554C34.7648 7.17845 35.0926 6.72037 35.517 6.39171C35.9379 6.05953 36.4071 5.8952 36.9247 5.8952C37.387 5.8952 37.7286 6.00013 37.9529 6.20641C38.1771 6.41268 38.3186 6.67843 38.3807 7.00363C38.4428 7.32878 38.4739 7.75188 38.4739 8.27634V14.2485C38.4739 14.8149 38.3738 15.2031 38.1771 15.4164C37.9805 15.6296 37.6285 15.7381 37.1282 15.7381V16.1716C38.2703 16.1156 39.0328 16.0877 39.4123 16.0877C39.7919 16.0877 40.6096 16.1156 41.8586 16.1716V15.7381C41.2858 15.7381 40.8856 15.6331 40.6544 15.4164C40.4233 15.2031 40.3094 14.8149 40.3094 14.2485V9.64003C40.3094 8.95118 40.4267 8.3218 40.6648 7.74837C40.9028 7.17845 41.2306 6.72389 41.655 6.39523C42.0759 6.06305 42.5452 5.89871 43.0627 5.89871C43.525 5.89871 43.8666 6.00358 44.0943 6.20992C44.3186 6.4162 44.46 6.68194 44.5222 7.00709C44.5843 7.3323 44.6153 7.7554 44.6153 8.27985V14.252C44.6153 14.8184 44.5152 15.2066 44.3186 15.4198C44.1219 15.6331 43.77 15.7415 43.2697 15.7415V16.1751C44.4118 16.1191 45.1743 16.0912 45.5538 16.0912C45.9333 16.0912 46.751 16.1191 48 16.1751V15.7415C47.4307 15.7415 47.0271 15.6366 46.7959 15.4198L46.7717 15.4164ZM5.71018 13.8464C5.07188 14.8918 4.30247 15.4164 3.4054 15.4164C2.91547 15.4164 2.52214 15.259 2.22197 14.9408C1.92179 14.6226 1.77343 14.1541 1.77343 13.5352C1.77343 12.9967 1.88729 12.5562 2.11846 12.2135C2.34962 11.8708 2.62565 11.5981 2.94307 11.3988C3.26394 11.1995 3.68143 10.9897 4.19897 10.7694C4.6475 10.5631 4.97872 10.3988 5.19954 10.2729C5.41691 10.1505 5.58597 9.98967 5.71018 9.79739V13.8464ZM32.3151 14.2485C32.3151 14.8149 32.1978 15.2031 31.9701 15.4164C31.7458 15.6262 31.4319 15.6891 30.8867 15.6926C30.483 15.6366 30.1518 15.5317 29.9103 15.3639C29.5515 15.1156 29.3686 14.6751 29.3686 14.0422V5.96164H30.766C31.3387 5.96164 31.739 6.10499 31.9701 6.39523C32.2013 6.68546 32.3151 7.14699 32.3151 7.77983V14.2485Z" fill="white"/>
</svg>
