<svg width="169" height="33" viewBox="0 0 169 33" fill="none" xmlns="http://www.w3.org/2000/svg">
<path d="M93.3326 30.359C92.8713 29.939 92.6442 29.1747 92.6442 28.0593V17.1935C92.6442 15.8646 92.5408 14.7766 92.3413 13.9366C92.1346 13.0966 91.7904 12.4012 91.3016 11.864C90.324 10.8312 88.9125 10.3148 87.0673 10.3148C85.6283 10.3148 84.3133 10.6866 83.1223 11.4302C81.9312 12.1739 80.9948 13.4064 80.3132 15.1141C80.148 13.6474 79.728 12.5664 79.0532 11.8572C78.0756 10.8243 76.6642 10.3079 74.819 10.3079C73.4076 10.3079 72.1062 10.7073 70.9152 11.506C69.7241 12.3047 68.8015 13.5511 68.1475 15.2312V10.4318C67.0321 10.8105 65.6275 10.8381 63.9201 10.8932C63.4105 10.9069 63.1697 10.9207 62.7221 10.9207H58.6048V9.86031C58.6048 7.3677 58.653 5.5843 58.7495 4.53078C58.8458 3.47039 59.0387 2.67165 59.3416 2.12767C59.5894 1.66634 59.9405 1.30139 60.4019 1.02597C60.8632 0.757427 61.3933 0.619712 61.9854 0.619712C62.5293 0.619712 62.9768 0.702341 63.3279 0.860712C63.6791 1.02597 63.8994 1.23942 63.982 1.51485C63.4657 1.62503 63.0526 1.85225 62.7427 2.20343C62.4329 2.55459 62.2746 3.01593 62.2746 3.58744C62.2746 4.26913 62.4949 4.79933 62.9287 5.19181C63.3624 5.5843 63.8925 5.78398 64.5122 5.78398C65.1318 5.78398 65.6551 5.57741 66.0612 5.17116C66.4675 4.7649 66.674 4.24847 66.674 3.62187C66.674 2.61657 66.2541 1.77651 65.4141 1.10171C64.464 0.371827 63.2866 0 61.8752 0C60.87 0 59.9475 0.185914 59.1074 0.550856C58.2675 0.915797 57.5721 1.41157 57.0351 2.03817C56.2502 2.96084 55.7063 4.07633 55.4102 5.37773C55.1142 6.67912 54.9627 8.52449 54.9627 10.9138H51.7062V11.7264H54.9627V28.0454C54.9627 29.1609 54.7355 29.9253 54.2743 30.3452C53.8336 30.7446 53.0831 30.9443 52.0435 30.965C50.9969 30.9443 50.2465 30.7446 49.8128 30.3452C49.3515 29.9253 49.1243 29.1609 49.1243 28.0454V17.1798C49.1243 15.8509 49.021 14.7629 48.8213 13.9229C48.6148 13.0828 48.2706 12.3873 47.7817 11.8503C46.804 10.8174 45.3926 10.301 43.5474 10.301C42.1085 10.301 40.7935 10.6728 39.6023 11.4165C38.4112 12.1602 37.4749 13.3927 36.7933 15.1004C36.628 13.6337 36.2081 12.5527 35.5334 11.8434C34.5557 10.8105 33.1443 10.2941 31.299 10.2941C29.8876 10.2941 28.5864 10.6935 27.3953 11.4922C26.2042 12.291 25.2816 13.5372 24.6275 15.2174V10.4181C23.5122 10.7968 22.1007 10.9896 20.3933 10.9896C19.5808 10.9896 18.7409 10.9483 17.8734 10.8656V11.7194C19.0162 11.7194 19.815 12.0018 20.2762 12.5733C20.7375 13.1447 20.9648 14.0537 20.9648 15.3V28.0386C20.9648 29.154 20.7306 29.9183 20.2762 30.3384C20.166 30.4417 20.0284 30.5312 19.8769 30.6069C19.815 30.6344 19.2504 30.8617 18.3967 30.9443C18.2383 30.9581 18.0868 30.965 17.9078 30.9719C17.2882 30.9787 16.5652 30.8961 15.801 30.6138C15.7115 30.5518 15.6289 30.483 15.56 30.4073C15.4911 30.3315 15.4292 30.2558 15.3879 30.18C15.1951 29.884 15.1056 29.395 15.1056 28.7133V17.4002C15.1056 15.961 14.9886 14.8042 14.7614 13.9229C14.5342 13.0415 14.0729 12.291 13.3982 11.6644C12.3104 10.6591 10.713 10.1564 8.59933 10.1564C7.40823 10.1564 6.30663 10.3079 5.30143 10.604C4.29622 10.9001 3.47003 11.2857 2.81596 11.7401C2.18942 12.1739 1.72124 12.6077 1.41142 13.0415C1.1016 13.4753 0.943241 14.0192 0.943241 14.6665C0.943241 15.3138 1.13602 15.9197 1.51469 16.3948C1.89337 16.8699 2.46482 17.104 3.22217 17.104C3.8969 17.104 4.45457 16.9044 4.88833 16.5119C5.32208 16.1194 5.5424 15.5823 5.5424 14.9075C5.5424 14.2327 5.3565 13.7163 4.9916 13.2825C4.6267 12.8487 4.17229 12.5664 3.62838 12.4286C4.41326 11.4509 5.75584 10.962 7.65609 10.962C8.84719 10.962 9.77666 11.2512 10.4445 11.8365C11.1055 12.4218 11.4428 13.4959 11.4428 15.0728V17.593C11.4428 18.3228 11.0779 18.9081 10.3412 19.3419C9.61142 19.7758 8.48229 20.2509 6.9607 20.7673C5.46667 21.2837 4.26869 21.7726 3.35987 22.2338C2.45105 22.6952 1.66617 23.3218 0.998321 24.1068C0.330479 24.8918 0 25.8971 0 27.1159C0 28.6376 0.413098 29.8219 1.23929 30.6757C2.06549 31.5296 3.33232 31.9565 5.04669 31.9565C6.37549 31.9565 7.57347 31.6948 8.62687 31.1647C9.68715 30.6344 10.6235 29.6911 11.4359 28.3346C11.4359 29.4502 11.6906 30.3315 12.2071 30.9787C12.7235 31.6329 13.6322 31.9565 14.9335 31.9565C15.023 31.9565 15.1056 31.9427 15.1951 31.9427C15.1951 31.9427 15.2227 31.9427 15.2709 31.9427C15.5325 31.9221 15.7873 31.8876 16.0144 31.8326C16.0144 31.8326 16.0144 31.8256 16.0144 31.8188C16.9164 31.6811 18.376 31.5089 19.3812 31.6122C21.309 31.7087 22.1007 31.6604 22.7548 31.6604C23.5122 31.6604 25.0338 31.7155 27.3127 31.8256V30.9719C26.3075 30.9719 25.6121 30.7653 25.2196 30.3384C24.8272 29.9183 24.6275 29.154 24.6275 28.0386V19.0045C24.6275 17.648 24.8616 16.4018 25.3367 15.2587C25.8118 14.1226 26.4659 13.2205 27.3127 12.5733C28.1526 11.9192 29.089 11.5955 30.1218 11.5955C31.0443 11.5955 31.726 11.8021 32.1734 12.2084C32.621 12.6146 32.9033 13.1379 33.0272 13.7782C33.1511 14.4187 33.2131 15.2519 33.2131 16.2847V28.0454C33.2131 29.1609 33.0135 29.9253 32.621 30.3452C32.2286 30.7653 31.5263 30.9787 30.528 30.9787V31.8326C32.8069 31.7224 34.3285 31.6673 35.0858 31.6673C35.8431 31.6673 37.4749 31.7224 39.9673 31.8326V30.9787C38.8243 30.9787 38.0257 30.7722 37.5644 30.3452C37.1031 29.9253 36.8759 29.1609 36.8759 28.0454V18.9701C36.8759 17.6136 37.11 16.3742 37.585 15.2449C38.0601 14.1226 38.7142 13.2275 39.561 12.5801C40.401 11.9261 41.3374 11.6023 42.3701 11.6023C43.2927 11.6023 43.9743 11.809 44.4287 12.2152C44.8762 12.6215 45.1585 13.1447 45.2824 13.7852C45.4064 14.4256 45.4684 15.2587 45.4684 16.2916V28.0523C45.4684 29.1678 45.2687 29.9321 44.8762 30.3521C44.4838 30.7722 43.7815 30.9856 42.7832 30.9856V31.8395C45.0621 31.7293 46.5837 31.6742 47.3411 31.6742C48.0433 31.6742 49.6544 31.8808 51.892 31.8256C54.3844 31.7293 55.9886 31.6742 56.6908 31.6742C57.4482 31.6742 58.6669 31.7568 61.4346 31.8395L63.0457 31.7706C64.643 31.7086 65.7377 31.6742 66.3161 31.6742C67.0734 31.6742 68.595 31.7293 70.8739 31.8395V30.9856C69.8686 30.9856 69.1733 30.779 68.7808 30.3521C68.3884 29.9321 68.1888 29.1678 68.1888 28.0523V19.0182C68.1888 17.6618 68.4228 16.4155 68.8979 15.2725C69.3729 14.1363 70.027 13.2343 70.8739 12.587C71.7138 11.9329 72.6502 11.6093 73.683 11.6093C74.6056 11.6093 75.2871 11.8159 75.7347 12.2221C76.1822 12.6283 76.4645 13.1517 76.5884 13.7921C76.7124 14.4324 76.7743 15.2656 76.7743 16.2984V28.0593C76.7743 29.1747 76.5746 29.939 76.1822 30.359C75.7897 30.779 75.0875 30.9925 74.0891 30.9925V31.8463C76.368 31.7361 77.8896 31.6811 78.6471 31.6811C79.4044 31.6811 81.0361 31.7361 83.5285 31.8463V30.9925C82.3856 30.9925 81.5869 30.7859 81.1257 30.359C80.6643 29.939 80.4371 29.1747 80.4371 28.0593V18.9839C80.4371 17.6273 80.6713 16.3879 81.1463 15.2587C81.6213 14.1363 82.2754 13.2412 83.1223 12.594C83.9622 11.9398 84.8986 11.6162 85.9314 11.6162C86.8539 11.6162 87.5355 11.8227 87.9899 12.229C88.4374 12.6353 88.7197 13.1586 88.8437 13.7989C88.9676 14.4393 89.0295 15.2725 89.0295 16.3053V28.0661C89.0295 29.1816 88.8299 29.9459 88.4374 30.3659C88.045 30.7859 87.3428 30.9994 86.3445 30.9994V31.8532C88.6234 31.743 90.1449 31.688 90.9023 31.688C91.6596 31.688 93.2913 31.743 95.7837 31.8532V30.9994C94.6477 30.9994 93.8422 30.7928 93.3809 30.3659L93.3326 30.359ZM11.3946 27.2673C10.1209 29.3261 8.58556 30.359 6.79546 30.359C5.8178 30.359 5.03291 30.0492 4.43393 29.4226C3.83493 28.796 3.53887 27.8733 3.53887 26.6545C3.53887 25.5941 3.76608 24.7265 4.22738 24.0517C4.68866 23.3769 5.23946 22.8399 5.87288 22.4474C6.51318 22.0549 7.34626 21.6418 8.37901 21.208C9.27405 20.8016 9.93501 20.478 10.3757 20.2302C10.8094 19.9892 11.1468 19.6724 11.3946 19.2937V27.2673ZM64.4846 28.0593C64.4846 29.1747 64.2506 29.939 63.7962 30.359C63.3486 30.7722 62.7221 30.8961 61.6342 30.903C60.8287 30.7928 60.1678 30.5862 59.6858 30.2558C58.9698 29.7668 58.6048 28.8993 58.6048 27.6529V11.7401H61.3933C62.5362 11.7401 63.3349 12.0224 63.7962 12.594C64.2574 13.1655 64.4846 14.0744 64.4846 15.3206V28.0593Z" fill="white"/>
<path d="M101.437 15.4157H100.477L102.479 10.568H103.169L105.172 15.4157H104.184L103.742 14.3423H101.879L101.437 15.4157ZM102.824 12.0223L102.224 13.5113H103.404L102.824 12.0223ZM105.267 14.7716L105.799 14.183C106.102 14.4531 106.53 14.6539 106.972 14.6539C107.345 14.6539 107.718 14.4462 107.718 14.0237C107.718 13.449 106.82 13.3796 106.178 13.0057C105.806 12.7841 105.509 12.424 105.509 11.8838C105.509 11.0043 106.254 10.4987 107.103 10.4987C107.6 10.4987 108.091 10.6649 108.498 10.9835L108.035 11.6414C107.78 11.4613 107.469 11.3298 107.131 11.3298C106.675 11.3298 106.441 11.5791 106.441 11.8492C106.441 12.3409 107.29 12.4309 107.939 12.8118C108.332 13.0403 108.65 13.4074 108.65 14.0168C108.65 14.8755 107.939 15.4849 106.986 15.4849C106.316 15.4849 105.75 15.2495 105.267 14.7716ZM109.11 14.7716L109.641 14.183C109.945 14.4531 110.373 14.6539 110.815 14.6539C111.188 14.6539 111.56 14.4462 111.56 14.0237C111.56 13.449 110.663 13.3796 110.021 13.0057C109.648 12.7841 109.351 12.424 109.351 11.8838C109.351 11.0043 110.097 10.4987 110.946 10.4987C111.443 10.4987 111.933 10.6649 112.341 10.9835L111.878 11.6414C111.623 11.4613 111.312 11.3298 110.974 11.3298C110.518 11.3298 110.283 11.5791 110.283 11.8492C110.283 12.3409 111.132 12.4309 111.781 12.8118C112.175 13.0403 112.492 13.4074 112.492 14.0168C112.492 14.8755 111.781 15.4849 110.829 15.4849C110.159 15.4849 109.593 15.2495 109.11 14.7716ZM113.988 12.9918C113.988 13.906 114.623 14.6539 115.514 14.6539C116.404 14.6539 117.039 13.906 117.039 12.9918C117.039 12.0777 116.404 11.3298 115.514 11.3298C114.623 11.3298 113.988 12.0777 113.988 12.9918ZM117.971 12.9918C117.971 14.4323 116.902 15.4849 115.514 15.4849C114.126 15.4849 113.056 14.4323 113.056 12.9918C113.056 11.5514 114.126 10.4987 115.514 10.4987C116.902 10.4987 117.971 11.5514 117.971 12.9918ZM122.934 11.3298L122.368 11.8976C122.03 11.5721 121.623 11.3298 121.084 11.3298C120.118 11.3298 119.483 12.0777 119.483 12.9918C119.483 13.906 120.096 14.6539 121.091 14.6539C121.664 14.6539 122.057 14.4392 122.472 13.996L123.072 14.5223C122.631 15.0971 121.926 15.4849 121.091 15.4849C119.6 15.4849 118.551 14.4323 118.551 12.9918C118.551 11.5514 119.62 10.4987 121.077 10.4987C121.843 10.4987 122.499 10.8519 122.934 11.3298ZM123.748 15.4157V10.568H124.681V15.4157H123.748ZM126.259 15.4157H125.3L127.302 10.568H127.992L129.994 15.4157H129.006L128.565 14.3423H126.701L126.259 15.4157ZM127.646 12.0223L127.047 13.5113H128.226L127.646 12.0223ZM129.745 10.568H133.231V11.399H131.954V15.4157H131.022V11.399H129.745V10.568ZM133.968 15.4157V10.568H134.901V15.4157H133.968ZM136.701 12.9918C136.701 13.906 137.336 14.6539 138.226 14.6539C139.116 14.6539 139.751 13.906 139.751 12.9918C139.751 12.0777 139.116 11.3298 138.226 11.3298C137.336 11.3298 136.701 12.0777 136.701 12.9918ZM140.684 12.9918C140.684 14.4323 139.613 15.4849 138.226 15.4849C136.839 15.4849 135.768 14.4323 135.768 12.9918C135.768 11.5514 136.839 10.4987 138.226 10.4987C139.613 10.4987 140.684 11.5514 140.684 12.9918ZM145.73 10.568V15.4157H145.039L142.471 12.2716V15.4157H141.553V10.568H142.243L144.812 13.712V10.568H145.73ZM101.658 21.2859C101.658 22.2 102.293 22.948 103.183 22.948C104.074 22.948 104.709 22.2 104.709 21.2859C104.709 20.3717 104.074 19.6238 103.183 19.6238C102.293 19.6238 101.658 20.3717 101.658 21.2859ZM105.641 21.2859C105.641 22.7264 104.571 23.779 103.183 23.779C101.796 23.779 100.726 22.7264 100.726 21.2859C100.726 19.8454 101.796 18.7928 103.183 18.7928C104.571 18.7928 105.641 19.8454 105.641 21.2859ZM109.409 19.6931H107.442V20.6972H108.995V21.5283H107.442V23.7097H106.51V18.862H109.409V19.6931ZM112.391 18.862L114.09 21.3482L115.774 18.862H116.465V23.7097H115.546V20.7319L114.172 22.7749H113.993L112.619 20.7319V23.7097H111.701V18.862H112.391ZM118.048 23.7097H117.088L119.09 18.862H119.78L121.783 23.7097H120.796L120.354 22.6363H118.489L118.048 23.7097ZM119.436 20.3163L118.835 21.8053H120.016L119.436 20.3163ZM125.721 20.1986C125.721 20.8218 125.361 21.3205 124.746 21.5075L126.411 23.7097H125.292L123.691 21.5629H123.339V23.7097H122.407V18.862H124.25C124.83 18.862 125.216 19.0767 125.458 19.4022C125.624 19.6238 125.721 19.9008 125.721 20.1986ZM123.339 20.7664H124.105C124.416 20.7664 124.567 20.6903 124.664 20.5726C124.74 20.4756 124.789 20.351 124.789 20.2193C124.789 20.0878 124.74 19.9701 124.664 19.8731C124.567 19.7554 124.416 19.6792 124.105 19.6792H123.339V20.7664ZM130.223 20.1986C130.223 20.8218 129.865 21.3205 129.25 21.5075L130.914 23.7097H129.796L128.194 21.5629H127.842V23.7097H126.91V18.862H128.753C129.333 18.862 129.72 19.0767 129.961 19.4022C130.127 19.6238 130.223 19.9008 130.223 20.1986ZM127.842 20.7664H128.608C128.918 20.7664 129.071 20.6903 129.168 20.5726C129.244 20.4756 129.292 20.351 129.292 20.2193C129.292 20.0878 129.244 19.9701 129.168 19.8731C129.071 19.7554 128.918 19.6792 128.608 19.6792H127.842V20.7664ZM131.414 23.7097V18.862H132.345V23.7097H131.414ZM133.925 23.7097H132.965L134.967 18.862H135.658L137.659 23.7097H136.672L136.23 22.6363H134.367L133.925 23.7097ZM135.312 20.3163L134.711 21.8053H135.892L135.312 20.3163ZM142.154 19.6238L141.588 20.1917C141.25 19.8662 140.843 19.6238 140.305 19.6238C139.338 19.6238 138.703 20.3717 138.703 21.2859C138.703 22.2 139.317 22.948 140.311 22.948C140.747 22.948 141.077 22.8372 141.395 22.5878V21.5283H140.118V20.7319H142.292V22.8441C141.851 23.405 141.146 23.779 140.311 23.779C138.82 23.779 137.77 22.7264 137.77 21.2859C137.77 19.8454 138.841 18.7928 140.297 18.7928C141.064 18.7928 141.72 19.1459 142.154 19.6238ZM146.131 19.6931H144.164V20.6972H145.717V21.5283H144.164V22.8787H146.2V23.7097H143.231V18.862H146.131V19.6931ZM103.791 29.0605L104.605 28.8804C104.654 29.0466 104.75 29.4691 104.75 29.85C104.75 30.3209 104.654 30.7503 104.453 31.0896L105.247 32.0038H104.129L103.874 31.7129C103.48 31.9691 103.073 32.073 102.521 32.073C101.575 32.073 100.726 31.4498 100.726 30.4871C100.726 29.8362 101.126 29.379 101.589 29.0675C101.354 28.7558 101.209 28.4649 101.209 28.1394C101.209 27.5438 101.754 27.0868 102.369 27.0868C103.038 27.0868 103.528 27.5716 103.528 28.2225C103.528 28.7004 103.232 29.0328 102.893 29.296L103.818 30.3625C103.86 30.2101 103.887 30.03 103.887 29.8431C103.887 29.5452 103.839 29.2751 103.791 29.0605ZM102.134 29.6907C101.844 29.8569 101.623 30.127 101.623 30.501C101.623 30.9372 101.989 31.2767 102.576 31.2767C102.845 31.2767 103.121 31.2073 103.321 31.0827L102.134 29.6907ZM102.645 28.2017C102.645 28.0286 102.534 27.8832 102.362 27.8832C102.203 27.8832 102.086 28.0286 102.086 28.2017C102.086 28.368 102.203 28.5411 102.334 28.6865C102.514 28.5342 102.645 28.3749 102.645 28.2017ZM110.158 27.9871H108.19V28.9912H109.744V29.8223H108.19V32.0038H107.258V27.156H110.158V27.9871ZM110.868 32.0038H109.909L111.911 27.156H112.601L114.603 32.0038H113.616L113.174 30.9303H111.31L110.868 32.0038ZM112.256 28.6103L111.655 30.0993H112.836L112.256 28.6103ZM115.917 27.156L117.615 29.6422L119.3 27.156H119.99V32.0038H119.072V29.0259L117.699 31.0689H117.519L116.145 29.0259V32.0038H115.227V27.156H115.917ZM121.153 32.0038V27.156H122.085V32.0038H121.153ZM123.242 32.0038V27.156H124.175V31.1728H126.211V32.0038H123.242ZM130.134 27.156L128.478 29.8084V32.0038H127.545V29.8084L125.888 27.156H126.951L128.022 28.8804L129.091 27.156H130.134ZM133.209 27.156L134.907 29.6422L136.593 27.156H137.283V32.0038H136.365V29.0259L134.991 31.0689H134.811L133.437 29.0259V32.0038H132.519V27.156H133.209ZM138.445 32.0038V27.156H139.377V32.0038H138.445ZM144.711 27.156V32.0038H144.021L141.453 28.8597V32.0038H140.535V27.156H141.225L143.793 30.3001V27.156H144.711ZM145.874 32.0038V27.156H146.806V32.0038H145.874ZM147.571 31.3597L148.102 30.771C148.406 31.0411 148.834 31.242 149.276 31.242C149.648 31.242 150.021 31.0342 150.021 30.6118C150.021 30.037 149.124 29.9677 148.482 29.5937C148.109 29.3721 147.812 29.0121 147.812 28.4718C147.812 27.5923 148.558 27.0868 149.407 27.0868C149.904 27.0868 150.394 27.253 150.801 27.5716L150.339 28.2295C150.084 28.0494 149.773 27.9178 149.434 27.9178C148.979 27.9178 148.744 28.1671 148.744 28.4372C148.744 28.9289 149.593 29.019 150.242 29.3999C150.636 29.6284 150.953 29.9954 150.953 30.6048C150.953 31.4636 150.242 32.073 149.29 32.073C148.62 32.073 148.054 31.8376 147.571 31.3597ZM151.339 27.156H154.825V27.9871H153.548V32.0038H152.616V27.9871H151.339V27.156ZM158.875 28.4926C158.875 29.1158 158.517 29.6146 157.902 29.8015L159.566 32.0038H158.447L156.845 29.8569H156.493V32.0038H155.562V27.156H157.405C157.985 27.156 158.372 27.3707 158.613 27.6962C158.779 27.9178 158.875 28.1948 158.875 28.4926ZM156.493 29.0605H157.26C157.57 29.0605 157.723 28.9843 157.819 28.8666C157.895 28.7696 157.943 28.645 157.943 28.5134C157.943 28.3818 157.895 28.2641 157.819 28.1671C157.723 28.0494 157.57 27.9732 157.26 27.9732H156.493V29.0605ZM160.066 32.0038V27.156H160.997V32.0038H160.066ZM165.055 27.9871H163.088V28.9912H164.64V29.8223H163.088V31.1728H165.124V32.0038H162.155V27.156H165.055V27.9871ZM165.618 31.3597L166.15 30.771C166.453 31.0411 166.881 31.242 167.323 31.242C167.696 31.242 168.068 31.0342 168.068 30.6118C168.068 30.037 167.172 29.9677 166.529 29.5937C166.156 29.3721 165.859 29.0121 165.859 28.4718C165.859 27.5923 166.606 27.0868 167.455 27.0868C167.952 27.0868 168.441 27.253 168.848 27.5716L168.386 28.2295C168.131 28.0494 167.82 27.9178 167.482 27.9178C167.026 27.9178 166.791 28.1671 166.791 28.4372C166.791 28.9289 167.64 29.019 168.29 29.3999C168.683 29.6284 169 29.9954 169 30.6048C169 31.4636 168.29 32.073 167.337 32.073C166.667 32.073 166.101 31.8376 165.618 31.3597Z" fill="white"/>
</svg>
