<svg width="59" height="58" viewBox="0 0 59 58" fill="none" xmlns="http://www.w3.org/2000/svg">
<path d="M40.5031 41.854C38.6649 43.0375 35.816 42.5137 33.506 41.5209C30.942 40.4245 28.6164 38.6818 26.7457 36.5827C22.9399 32.3464 21.2372 27.1755 20.2925 22.2667C19.7029 19.2108 19.4332 16.1817 19.4227 13.1897C19.4222 12.9117 19.8007 12.7647 20.0635 12.8504C20.3996 12.9561 20.577 13.2691 20.5775 13.5471C20.5944 16.0799 20.8186 18.6425 21.2501 21.2348C21.6544 23.6028 22.1928 25.9803 23.0473 28.3362C24.7454 32.9026 27.8585 37.4708 32.6314 39.9864C34.8739 41.1708 37.9038 42.0561 39.7902 40.8316C40.0258 40.6929 40.4174 40.8545 40.6 41.1011C40.8293 41.4216 40.7387 41.7153 40.5031 41.854Z" fill="black" fill-opacity="0.2"/>
<path d="M14.4321 17.6371C16.5694 16.0889 18.7066 14.5408 20.8439 12.9926C21.2828 12.6712 21.7895 12.1576 22.5059 12.5105C22.8686 12.678 23.0988 12.9995 23.2896 13.3442C23.4805 13.6888 23.6497 14.0208 23.8316 14.3834C24.5643 15.7673 25.2666 17.1564 25.9993 18.5403C26.8077 20.1081 27.6251 21.6579 28.4335 23.2257C28.5686 23.5143 28.3952 23.8066 28.1208 23.8537C27.8159 23.906 27.5016 23.6974 27.3665 23.4088C26.0414 20.8631 24.7162 18.3174 23.4037 15.8023C23.0563 15.1564 22.7393 14.5052 22.3919 13.8592C22.3451 13.7852 22.2084 13.6117 22.201 13.5145C22.1848 13.4353 22.1706 13.5198 22.2315 13.5093C22.4323 13.442 22.2962 13.5474 22.2962 13.5474C22.2873 13.5654 22.0507 13.7044 22.0418 13.7224C21.9056 13.8278 21.7784 13.9152 21.6423 14.0206C20.6767 14.7278 19.6896 15.4223 18.715 16.1474C17.6133 16.96 16.49 17.7598 15.3883 18.5724C15.1643 18.7421 14.8342 18.7331 14.5683 18.4834C14.3202 18.1978 14.2171 17.7888 14.4321 17.6371Z" fill="black" fill-opacity="0.2"/>
</svg>
