<svg width="59" height="58" viewBox="0 0 59 58" fill="none" xmlns="http://www.w3.org/2000/svg">
<path d="M18.1525 41.8544C19.9903 43.0383 22.8393 42.515 25.1497 41.5224C27.714 40.4264 30.0403 38.684 31.9118 36.5849C35.719 32.3489 37.4236 27.1777 38.3701 22.2686C38.9607 19.2125 39.2315 16.1831 39.2431 13.1908C39.2437 12.9127 38.8653 12.7657 38.6024 12.8513C38.2663 12.957 38.0888 13.27 38.0882 13.548C38.0704 16.0811 37.8453 18.6439 37.4128 21.2364C37.0077 23.6045 36.4685 25.9823 35.6131 28.3383C33.9134 32.9049 30.7986 37.473 26.0248 39.988C23.7819 41.1721 20.7516 42.0569 18.8657 40.8319C18.6302 40.6932 18.2386 40.8547 18.0558 41.1014C17.8264 41.4218 17.9169 41.7156 18.1525 41.8544Z" fill="black" fill-opacity="0.2"/>
<path d="M44.2332 17.6411C42.0965 16.0924 39.9598 14.5437 37.8231 12.995C37.3843 12.6734 36.8777 12.1597 36.1612 12.5125C35.7984 12.6799 35.568 13.0014 35.3771 13.3461C35.1862 13.6908 35.0168 14.0227 34.8348 14.3853C34.1016 15.7692 33.3988 17.1584 32.6656 18.5422C31.8566 20.1101 31.0386 21.6599 30.2296 23.2278C30.0945 23.5164 30.2678 23.8087 30.5422 23.8559C30.847 23.9082 31.1614 23.6997 31.2966 23.4111C32.6227 20.8653 33.9487 18.3196 35.2622 15.8045C35.6099 15.1585 35.9271 14.5073 36.2747 13.8614C36.3215 13.7873 36.4583 13.6139 36.4657 13.5167C36.482 13.4374 36.4961 13.5219 36.4352 13.5115C36.2344 13.4441 36.3705 13.5496 36.3705 13.5496C36.3794 13.5675 36.6159 13.7066 36.6249 13.7246C36.761 13.83 36.8881 13.9175 37.0242 14.0229C37.9896 14.7304 38.9765 15.4251 39.9508 16.1505C41.0522 16.9633 42.1753 17.7635 43.2767 18.5764C43.5006 18.7461 43.8307 18.7372 44.0967 18.4875C44.345 18.2019 44.4481 17.7929 44.2332 17.6411Z" fill="black" fill-opacity="0.2"/>
</svg>
