<svg preserveAspectRatio="none" overflow="visible" style="display: block;" width="57.75" height="57.75" viewBox="0 0 57.75 57.75" fill="none" xmlns="http://www.w3.org/2000/svg">
<g id="Vector">
<path d="M2.75 0H0V2.75H2.75V0Z" fill="black"/>
<path d="M5.5 0H2.75V2.75H5.5V0Z" fill="black"/>
<path d="M8.25 0H5.5V2.75H8.25V0Z" fill="black"/>
<path d="M11 0H8.25V2.75H11V0Z" fill="black"/>
<path d="M13.75 0H11V2.75H13.75V0Z" fill="black"/>
<path d="M16.5 0H13.75V2.75H16.5V0Z" fill="black"/>
<path d="M19.25 0H16.5V2.75H19.25V0Z" fill="black"/>
<path d="M30.25 0H27.5V2.75H30.25V0Z" fill="black"/>
<path d="M35.75 0H33V2.75H35.75V0Z" fill="black"/>
<path d="M41.25 0H38.5V2.75H41.25V0Z" fill="black"/>
<path d="M44 0H41.25V2.75H44V0Z" fill="black"/>
<path d="M46.75 0H44V2.75H46.75V0Z" fill="black"/>
<path d="M49.5 0H46.75V2.75H49.5V0Z" fill="black"/>
<path d="M52.25 0H49.5V2.75H52.25V0Z" fill="black"/>
<path d="M55 0H52.25V2.75H55V0Z" fill="black"/>
<path d="M57.75 0H55V2.75H57.75V0Z" fill="black"/>
<path d="M2.75 2.75H0V5.5H2.75V2.75Z" fill="black"/>
<path d="M19.25 2.75H16.5V5.5H19.25V2.75Z" fill="black"/>
<path d="M24.75 2.75H22V5.5H24.75V2.75Z" fill="black"/>
<path d="M41.25 2.75H38.5V5.5H41.25V2.75Z" fill="black"/>
<path d="M57.75 2.75H55V5.5H57.75V2.75Z" fill="black"/>
<path d="M2.75 5.5H0V8.25H2.75V5.5Z" fill="black"/>
<path d="M8.25 5.5H5.5V8.25H8.25V5.5Z" fill="black"/>
<path d="M11 5.5H8.25V8.25H11V5.5Z" fill="black"/>
<path d="M13.75 5.5H11V8.25H13.75V5.5Z" fill="black"/>
<path d="M19.25 5.5H16.5V8.25H19.25V5.5Z" fill="black"/>
<path d="M24.75 5.5H22V8.25H24.75V5.5Z" fill="black"/>
<path d="M27.5 5.5H24.75V8.25H27.5V5.5Z" fill="black"/>
<path d="M41.25 5.5H38.5V8.25H41.25V5.5Z" fill="black"/>
<path d="M46.75 5.5H44V8.25H46.75V5.5Z" fill="black"/>
<path d="M49.5 5.5H46.75V8.25H49.5V5.5Z" fill="black"/>
<path d="M52.25 5.5H49.5V8.25H52.25V5.5Z" fill="black"/>
<path d="M57.75 5.5H55V8.25H57.75V5.5Z" fill="black"/>
<path d="M2.75 8.25H0V11H2.75V8.25Z" fill="black"/>
<path d="M8.25 8.25H5.5V11H8.25V8.25Z" fill="black"/>
<path d="M11 8.25H8.25V11H11V8.25Z" fill="black"/>
<path d="M13.75 8.25H11V11H13.75V8.25Z" fill="black"/>
<path d="M19.25 8.25H16.5V11H19.25V8.25Z" fill="black"/>
<path d="M24.75 8.25H22V11H24.75V8.25Z" fill="black"/>
<path d="M35.75 8.25H33V11H35.75V8.25Z" fill="black"/>
<path d="M41.25 8.25H38.5V11H41.25V8.25Z" fill="black"/>
<path d="M46.75 8.25H44V11H46.75V8.25Z" fill="black"/>
<path d="M49.5 8.25H46.75V11H49.5V8.25Z" fill="black"/>
<path d="M52.25 8.25H49.5V11H52.25V8.25Z" fill="black"/>
<path d="M57.75 8.25H55V11H57.75V8.25Z" fill="black"/>
<path d="M2.75 11H0V13.75H2.75V11Z" fill="black"/>
<path d="M8.25 11H5.5V13.75H8.25V11Z" fill="black"/>
<path d="M11 11H8.25V13.75H11V11Z" fill="black"/>
<path d="M13.75 11H11V13.75H13.75V11Z" fill="black"/>
<path d="M19.25 11H16.5V13.75H19.25V11Z" fill="black"/>
<path d="M33 11H30.25V13.75H33V11Z" fill="black"/>
<path d="M35.75 11H33V13.75H35.75V11Z" fill="black"/>
<path d="M41.25 11H38.5V13.75H41.25V11Z" fill="black"/>
<path d="M46.75 11H44V13.75H46.75V11Z" fill="black"/>
<path d="M49.5 11H46.75V13.75H49.5V11Z" fill="black"/>
<path d="M52.25 11H49.5V13.75H52.25V11Z" fill="black"/>
<path d="M57.75 11H55V13.75H57.75V11Z" fill="black"/>
<path d="M2.75 13.75H0V16.5H2.75V13.75Z" fill="black"/>
<path d="M19.25 13.75H16.5V16.5H19.25V13.75Z" fill="black"/>
<path d="M24.75 13.75H22V16.5H24.75V13.75Z" fill="black"/>
<path d="M30.25 13.75H27.5V16.5H30.25L30.25 13.75Z" fill="black"/>
<path d="M35.75 13.75H33V16.5H35.75V13.75Z" fill="black"/>
<path d="M41.25 13.75H38.5V16.5H41.25V13.75Z" fill="black"/>
<path d="M57.75 13.75H55V16.5H57.75V13.75Z" fill="black"/>
<path d="M2.75 16.5H0V19.25H2.75V16.5Z" fill="black"/>
<path d="M5.5 16.5H2.75V19.25H5.5V16.5Z" fill="black"/>
<path d="M8.25 16.5H5.5V19.25H8.25V16.5Z" fill="black"/>
<path d="M11 16.5H8.25V19.25H11V16.5Z" fill="black"/>
<path d="M13.75 16.5H11V19.25H13.75V16.5Z" fill="black"/>
<path d="M16.5 16.5H13.75V19.25H16.5V16.5Z" fill="black"/>
<path d="M19.25 16.5H16.5V19.25H19.25V16.5Z" fill="black"/>
<path d="M24.75 16.5H22V19.25H24.75V16.5Z" fill="black"/>
<path d="M30.25 16.5H27.5V19.25H30.25V16.5Z" fill="black"/>
<path d="M35.75 16.5H33V19.25H35.75V16.5Z" fill="black"/>
<path d="M41.25 16.5H38.5V19.25H41.25V16.5Z" fill="black"/>
<path d="M44 16.5H41.25V19.25H44V16.5Z" fill="black"/>
<path d="M46.75 16.5H44V19.25H46.75V16.5Z" fill="black"/>
<path d="M49.5 16.5H46.75V19.25H49.5V16.5Z" fill="black"/>
<path d="M52.25 16.5H49.5V19.25H52.25V16.5Z" fill="black"/>
<path d="M55 16.5H52.25V19.25H55V16.5Z" fill="black"/>
<path d="M57.75 16.5H55V19.25H57.75V16.5Z" fill="black"/>
<path d="M27.5 19.25H24.75L24.75 22H27.5L27.5 19.25Z" fill="black"/>
<path d="M30.25 19.25H27.5L27.5 22H30.25V19.25Z" fill="black"/>
<path d="M33 19.25H30.25V22H33V19.25Z" fill="black"/>
<path d="M35.75 19.25H33V22H35.75V19.25Z" fill="black"/>
<path d="M5.5 22H2.75V24.75H5.5V22Z" fill="black"/>
<path d="M8.25 22H5.5V24.75H8.25V22Z" fill="black"/>
<path d="M19.25 22H16.5V24.75H19.25V22Z" fill="black"/>
<path d="M30.25 22H27.5L27.5 24.75H30.25V22Z" fill="black"/>
<path d="M33 22H30.25V24.75H33V22Z" fill="black"/>
<path d="M38.5 22L35.75 22V24.75H38.5V22Z" fill="black"/>
<path d="M44 22H41.25V24.75H44V22Z" fill="black"/>
<path d="M49.5 22H46.75V24.75H49.5V22Z" fill="black"/>
<path d="M52.25 22H49.5V24.75H52.25V22Z" fill="black"/>
<path d="M55 22H52.25V24.75H55V22Z" fill="black"/>
<path d="M8.25 24.75H5.5V27.5H8.25V24.75Z" fill="black"/>
<path d="M11 24.75L8.25 24.75V27.5H11V24.75Z" fill="black"/>
<path d="M13.75 24.75H11V27.5H13.75V24.75Z" fill="black"/>
<path d="M30.25 24.75H27.5V27.5H30.25V24.75Z" fill="black"/>
<path d="M38.5 24.75H35.75V27.5H38.5V24.75Z" fill="black"/>
<path d="M41.25 24.75H38.5V27.5H41.25V24.75Z" fill="black"/>
<path d="M49.5 24.75H46.75V27.5H49.5V24.75Z" fill="black"/>
<path d="M55 24.75H52.25V27.5H55V24.75Z" fill="black"/>
<path d="M57.75 24.75L55 24.75V27.5H57.75V24.75Z" fill="black"/>
<path d="M5.5 27.5L2.75 27.5V30.25H5.5V27.5Z" fill="black"/>
<path d="M8.25 27.5H5.5V30.25H8.25V27.5Z" fill="black"/>
<path d="M11 27.5H8.25V30.25H11V27.5Z" fill="black"/>
<path d="M13.75 27.5H11V30.25H13.75V27.5Z" fill="black"/>
<path d="M19.25 27.5H16.5V30.25H19.25V27.5Z" fill="black"/>
<path d="M24.75 27.5H22V30.25H24.75V27.5Z" fill="black"/>
<path d="M27.5 27.5L24.75 27.5V30.25H27.5L27.5 27.5Z" fill="black"/>
<path d="M33 27.5L30.25 27.5L30.25 30.25H33V27.5Z" fill="black"/>
<path d="M35.75 27.5L33 27.5V30.25H35.75V27.5Z" fill="black"/>
<path d="M41.25 27.5H38.5V30.25H41.25V27.5Z" fill="black"/>
<path d="M46.75 27.5L44 27.5V30.25H46.75V27.5Z" fill="black"/>
<path d="M55 27.5H52.25V30.25H55V27.5Z" fill="black"/>
<path d="M57.75 27.5H55V30.25H57.75V27.5Z" fill="black"/>
<path d="M2.75 30.25L0 30.25V33H2.75V30.25Z" fill="black"/>
<path d="M8.25 30.25H5.5V33H8.25V30.25Z" fill="black"/>
<path d="M13.75 30.25H11V33H13.75V30.25Z" fill="black"/>
<path d="M16.5 30.25H13.75V33H16.5V30.25Z" fill="black"/>
<path d="M27.5 30.25H24.75L24.75 33H27.5V30.25Z" fill="black"/>
<path d="M30.25 30.25H27.5V33H30.25L30.25 30.25Z" fill="black"/>
<path d="M33 30.25H30.25L30.25 33H33V30.25Z" fill="black"/>
<path d="M38.5 30.25H35.75V33H38.5V30.25Z" fill="black"/>
<path d="M46.75 30.25H44V33H46.75V30.25Z" fill="black"/>
<path d="M49.5 30.25L46.75 30.25V33H49.5V30.25Z" fill="black"/>
<path d="M5.5 33H2.75V35.75H5.5V33Z" fill="black"/>
<path d="M11 33H8.25V35.75H11V33Z" fill="black"/>
<path d="M16.5 33H13.75V35.75H16.5V33Z" fill="black"/>
<path d="M19.25 33H16.5V35.75H19.25V33Z" fill="black"/>
<path d="M24.75 33H22V35.75H24.75L24.75 33Z" fill="black"/>
<path d="M30.25 33H27.5L27.5 35.75H30.25V33Z" fill="black"/>
<path d="M41.25 33H38.5V35.75H41.25V33Z" fill="black"/>
<path d="M52.25 33H49.5V35.75H52.25V33Z" fill="black"/>
<path d="M27.5 35.75H24.75L24.75 38.5H27.5L27.5 35.75Z" fill="black"/>
<path d="M46.75 35.75H44V38.5H46.75V35.75Z" fill="black"/>
<path d="M55 35.75H52.25V38.5H55V35.75Z" fill="black"/>
<path d="M57.75 35.75H55V38.5H57.75V35.75Z" fill="black"/>
<path d="M2.75 38.5H0V41.25H2.75V38.5Z" fill="black"/>
<path d="M5.5 38.5H2.75V41.25H5.5V38.5Z" fill="black"/>
<path d="M8.25 38.5H5.5V41.25H8.25V38.5Z" fill="black"/>
<path d="M11 38.5H8.25V41.25H11V38.5Z" fill="black"/>
<path d="M13.75 38.5H11V41.25H13.75V38.5Z" fill="black"/>
<path d="M16.5 38.5H13.75V41.25H16.5V38.5Z" fill="black"/>
<path d="M19.25 38.5H16.5V41.25H19.25V38.5Z" fill="black"/>
<path d="M27.5 38.5H24.75V41.25H27.5V38.5Z" fill="black"/>
<path d="M33 38.5H30.25V41.25H33V38.5Z" fill="black"/>
<path d="M38.5 38.5H35.75V41.25H38.5V38.5Z" fill="black"/>
<path d="M46.75 38.5H44V41.25H46.75V38.5Z" fill="black"/>
<path d="M49.5 38.5H46.75V41.25H49.5V38.5Z" fill="black"/>
<path d="M52.25 38.5H49.5V41.25H52.25V38.5Z" fill="black"/>
<path d="M2.75 41.25H0V44H2.75V41.25Z" fill="black"/>
<path d="M19.25 41.25H16.5V44H19.25V41.25Z" fill="black"/>
<path d="M27.5 41.25H24.75V44H27.5V41.25Z" fill="black"/>
<path d="M33 41.25H30.25V44H33V41.25Z" fill="black"/>
<path d="M41.25 41.25H38.5V44H41.25V41.25Z" fill="black"/>
<path d="M46.75 41.25H44V44H46.75V41.25Z" fill="black"/>
<path d="M55 41.25H52.25V44H55V41.25Z" fill="black"/>
<path d="M57.75 41.25H55V44H57.75V41.25Z" fill="black"/>
<path d="M2.75 44H0V46.75H2.75V44Z" fill="black"/>
<path d="M8.25 44H5.5V46.75H8.25V44Z" fill="black"/>
<path d="M11 44H8.25V46.75H11V44Z" fill="black"/>
<path d="M13.75 44H11V46.75H13.75V44Z" fill="black"/>
<path d="M19.25 44H16.5V46.75H19.25V44Z" fill="black"/>
<path d="M33 44H30.25V46.75H33V44Z" fill="black"/>
<path d="M38.5 44H35.75V46.75H38.5V44Z" fill="black"/>
<path d="M41.25 44H38.5V46.75H41.25V44Z" fill="black"/>
<path d="M46.75 44H44V46.75H46.75V44Z" fill="black"/>
<path d="M55 44H52.25V46.75H55V44Z" fill="black"/>
<path d="M2.75 46.75H0V49.5H2.75V46.75Z" fill="black"/>
<path d="M8.25 46.75H5.5V49.5H8.25V46.75Z" fill="black"/>
<path d="M11 46.75H8.25V49.5H11V46.75Z" fill="black"/>
<path d="M13.75 46.75H11V49.5H13.75V46.75Z" fill="black"/>
<path d="M19.25 46.75H16.5V49.5H19.25V46.75Z" fill="black"/>
<path d="M33 46.75H30.25V49.5H33V46.75Z" fill="black"/>
<path d="M44 46.75H41.25V49.5H44V46.75Z" fill="black"/>
<path d="M46.75 46.75H44V49.5H46.75V46.75Z" fill="black"/>
<path d="M49.5 46.75H46.75V49.5H49.5V46.75Z" fill="black"/>
<path d="M2.75 49.5H0V52.25H2.75V49.5Z" fill="black"/>
<path d="M8.25 49.5H5.5V52.25H8.25V49.5Z" fill="black"/>
<path d="M11 49.5H8.25V52.25H11V49.5Z" fill="black"/>
<path d="M13.75 49.5H11V52.25H13.75V49.5Z" fill="black"/>
<path d="M19.25 49.5H16.5V52.25H19.25V49.5Z" fill="black"/>
<path d="M24.75 49.5H22V52.25H24.75V49.5Z" fill="black"/>
<path d="M27.5 49.5H24.75V52.25H27.5V49.5Z" fill="black"/>
<path d="M38.5 49.5H35.75V52.25H38.5V49.5Z" fill="black"/>
<path d="M41.25 49.5H38.5V52.25H41.25V49.5Z" fill="black"/>
<path d="M44 49.5H41.25V52.25H44V49.5Z" fill="black"/>
<path d="M46.75 49.5H44V52.25H46.75V49.5Z" fill="black"/>
<path d="M52.25 49.5H49.5V52.25H52.25V49.5Z" fill="black"/>
<path d="M57.75 49.5H55V52.25H57.75V49.5Z" fill="black"/>
<path d="M2.75 52.25H0V55H2.75V52.25Z" fill="black"/>
<path d="M19.25 52.25H16.5V55H19.25V52.25Z" fill="black"/>
<path d="M24.75 52.25H22V55H24.75V52.25Z" fill="black"/>
<path d="M30.25 52.25H27.5L27.5 55H30.25V52.25Z" fill="black"/>
<path d="M33 52.25H30.25V55H33V52.25Z" fill="black"/>
<path d="M38.5 52.25H35.75V55H38.5V52.25Z" fill="black"/>
<path d="M44 52.25H41.25V55H44V52.25Z" fill="black"/>
<path d="M46.75 52.25H44V55H46.75V52.25Z" fill="black"/>
<path d="M49.5 52.25H46.75V55H49.5V52.25Z" fill="black"/>
<path d="M2.75 55H0V57.75H2.75V55Z" fill="black"/>
<path d="M5.5 55H2.75V57.75H5.5V55Z" fill="black"/>
<path d="M8.25 55H5.5V57.75H8.25V55Z" fill="black"/>
<path d="M11 55H8.25V57.75H11V55Z" fill="black"/>
<path d="M13.75 55H11V57.75H13.75V55Z" fill="black"/>
<path d="M16.5 55H13.75V57.75H16.5V55Z" fill="black"/>
<path d="M19.25 55H16.5V57.75H19.25V55Z" fill="black"/>
<path d="M27.5 55H24.75L24.75 57.75H27.5L27.5 55Z" fill="black"/>
<path d="M30.25 55H27.5L27.5 57.75H30.25V55Z" fill="black"/>
<path d="M33 55H30.25V57.75H33V55Z" fill="black"/>
<path d="M44 55H41.25V57.75H44V55Z" fill="black"/>
<path d="M46.75 55H44V57.75H46.75V55Z" fill="black"/>
<path d="M55 55H52.25V57.75H55V55Z" fill="black"/>
</g>
</svg>
