<svg width="22" height="21" viewBox="0 0 22 21" fill="none" xmlns="http://www.w3.org/2000/svg">
<path d="M21 7.5H21.75H21ZM10.5 14.25V15V14.25ZM12.75 7.5H12C12 7.78831 12.1653 8.0511 12.4251 8.17599C12.685 8.30087 12.9934 8.26574 13.2186 8.08563L12.75 7.5ZM13.5 0.75V1.5V0.75ZM0.75 3.75C0.335786 3.75 0 4.08579 0 4.5C0 4.91421 0.335786 5.25 0.75 5.25L0.75 4.5L0.75 3.75ZM19.3526 3.17781C19.676 2.91904 19.7285 2.44707 19.4697 2.12363C19.2109 1.8002 18.7389 1.74779 18.4155 2.00656L18.8841 2.59219L19.3526 3.17781ZM3.75 7.5V8.25H21V7.5V6.75H3.75V7.5ZM21 7.5H20.25C20.25 9.0913 19.6179 10.6174 18.4926 11.7426L19.023 12.273L19.5533 12.8033C20.9598 11.3968 21.75 9.48912 21.75 7.5H21ZM19.023 12.273L18.4926 11.7426C17.3674 12.8679 15.8413 13.5 14.25 13.5V14.25V15C16.2391 15 18.1468 14.2098 19.5533 12.8033L19.023 12.273ZM14.25 14.25V13.5H10.5V14.25V15H14.25V14.25ZM10.5 14.25V13.5C8.9087 13.5 7.38258 12.8679 6.25736 11.7426L5.72703 12.273L5.1967 12.8033C6.60322 14.2098 8.51088 15 10.5 15V14.25ZM5.72703 12.273L6.25736 11.7426C5.13214 10.6174 4.5 9.0913 4.5 7.5H3.75H3C3 9.48912 3.79018 11.3968 5.1967 12.8033L5.72703 12.273ZM12.75 7.5H13.5V1.5H12.75H12V7.5H12.75ZM12.75 1.5H13.5L13.5 1.5L12.9697 0.96967L12.4393 0.43934C12.158 0.720645 12 1.10218 12 1.5H12.75ZM12.9697 0.96967L13.5 1.5L13.5 1.5V0.75V0C13.1022 0 12.7206 0.158035 12.4393 0.43934L12.9697 0.96967ZM13.5 0.75V1.5H14.25V0.75V0H13.5V0.75ZM14.25 0.75V1.5C15.8413 1.5 17.3674 2.13214 18.4926 3.25736L19.023 2.72703L19.5533 2.1967C18.1468 0.790176 16.2391 0 14.25 0V0.75ZM19.023 2.72703L18.4926 3.25736C19.6179 4.38258 20.25 5.9087 20.25 7.5H21H21.75C21.75 5.51088 20.9598 3.60322 19.5533 2.1967L19.023 2.72703ZM0.75 4.5L0.75 5.25C1.34674 5.25 1.91903 5.48705 2.34099 5.90901L2.87132 5.37868L3.40165 4.84835C2.69839 4.14509 1.74456 3.75 0.75 3.75L0.75 4.5ZM2.87132 5.37868L2.34099 5.90901C2.76295 6.33097 3 6.90326 3 7.5H3.75H4.5C4.5 6.50544 4.10491 5.55161 3.40165 4.84835L2.87132 5.37868ZM9 18H8.25C8.25 18.4142 7.91421 18.75 7.5 18.75V19.5V20.25C8.74264 20.25 9.75 19.2426 9.75 18H9ZM7.5 19.5V18.75C7.08579 18.75 6.75 18.4142 6.75 18H6H5.25C5.25 19.2426 6.25736 20.25 7.5 20.25V19.5ZM6 18H6.75C6.75 17.5858 7.08579 17.25 7.5 17.25V16.5V15.75C6.25736 15.75 5.25 16.7574 5.25 18H6ZM7.5 16.5V17.25C7.91421 17.25 8.25 17.5858 8.25 18H9H9.75C9.75 16.7574 8.74264 15.75 7.5 15.75V16.5ZM18.75 18H18C18 18.4142 17.6642 18.75 17.25 18.75V19.5V20.25C18.4926 20.25 19.5 19.2426 19.5 18H18.75ZM17.25 19.5V18.75C16.8358 18.75 16.5 18.4142 16.5 18H15.75H15C15 19.2426 16.0074 20.25 17.25 20.25V19.5ZM15.75 18H16.5C16.5 17.5858 16.8358 17.25 17.25 17.25V16.5V15.75C16.0074 15.75 15 16.7574 15 18H15.75ZM17.25 16.5V17.25C17.6642 17.25 18 17.5858 18 18H18.75H19.5C19.5 16.7574 18.4926 15.75 17.25 15.75V16.5ZM12.75 7.5L13.2186 8.08563L19.3526 3.17781L18.8841 2.59219L18.4155 2.00656L12.2814 6.91437L12.75 7.5Z" fill="black"/>
</svg>
